<mxfile host="65bd71144e">
    <diagram id="VDUsnzP6aGNKI_Gin1_U" name="Page-1">
        <mxGraphModel dx="1953" dy="1428" grid="1" gridSize="10" guides="1" tooltips="1" connect="1" arrows="1" fold="1" page="1" pageScale="1" pageWidth="850" pageHeight="1100" math="0" shadow="0">
            <root>
                <mxCell id="0"/>
                <mxCell id="1" parent="0"/>
                <mxCell id="23" value="" style="shape=table;startSize=0;container=1;collapsible=0;childLayout=tableLayout;fillStyle=auto;" parent="1" vertex="1">
                    <mxGeometry x="530" y="91" width="210" height="40" as="geometry"/>
                </mxCell>
                <mxCell id="24" value="" style="shape=tableRow;horizontal=0;startSize=0;swimlaneHead=0;swimlaneBody=0;top=0;left=0;bottom=0;right=0;collapsible=0;dropTarget=0;fillColor=none;points=[[0,0.5],[1,0.5]];portConstraint=eastwest;fillStyle=auto;" parent="23" vertex="1">
                    <mxGeometry width="210" height="40" as="geometry"/>
                </mxCell>
                <mxCell id="25" value="&lt;span style=&quot;background-color: rgb(0, 204, 0);&quot;&gt;&lt;b&gt;&lt;font style=&quot;font-size: 17px;&quot;&gt;NULL&lt;/font&gt;&lt;/b&gt;&lt;/span&gt;" style="shape=partialRectangle;html=1;whiteSpace=wrap;connectable=0;overflow=hidden;fillColor=none;top=0;left=0;bottom=0;right=0;pointerEvents=1;fillStyle=auto;" parent="24" vertex="1">
                    <mxGeometry width="70" height="40" as="geometry">
                        <mxRectangle width="70" height="40" as="alternateBounds"/>
                    </mxGeometry>
                </mxCell>
                <mxCell id="26" value="&lt;font style=&quot;font-size: 17px;&quot;&gt;&lt;b&gt;DATA&lt;/b&gt;&lt;/font&gt;" style="shape=partialRectangle;html=1;whiteSpace=wrap;connectable=0;overflow=hidden;fillColor=none;top=0;left=0;bottom=0;right=0;pointerEvents=1;fillStyle=auto;" parent="24" vertex="1">
                    <mxGeometry x="70" width="70" height="40" as="geometry">
                        <mxRectangle width="70" height="40" as="alternateBounds"/>
                    </mxGeometry>
                </mxCell>
                <mxCell id="27" value="&lt;b style=&quot;&quot;&gt;&lt;font style=&quot;font-size: 17px; background-color: rgb(255, 51, 51);&quot;&gt;0x1008&lt;/font&gt;&lt;/b&gt;" style="shape=partialRectangle;html=1;whiteSpace=wrap;connectable=0;overflow=hidden;fillColor=none;top=0;left=0;bottom=0;right=0;pointerEvents=1;fillStyle=auto;" parent="24" vertex="1">
                    <mxGeometry x="140" width="70" height="40" as="geometry">
                        <mxRectangle width="70" height="40" as="alternateBounds"/>
                    </mxGeometry>
                </mxCell>
                <mxCell id="38" value="" style="shape=table;startSize=0;container=1;collapsible=0;childLayout=tableLayout;fillStyle=auto;" parent="1" vertex="1">
                    <mxGeometry x="530" y="331" width="210" height="40" as="geometry"/>
                </mxCell>
                <mxCell id="39" value="" style="shape=tableRow;horizontal=0;startSize=0;swimlaneHead=0;swimlaneBody=0;top=0;left=0;bottom=0;right=0;collapsible=0;dropTarget=0;fillColor=none;points=[[0,0.5],[1,0.5]];portConstraint=eastwest;fillStyle=auto;" parent="38" vertex="1">
                    <mxGeometry width="210" height="40" as="geometry"/>
                </mxCell>
                <mxCell id="40" value="&lt;b style=&quot;background-color: rgb(0, 204, 0);&quot;&gt;&lt;font style=&quot;font-size: 17px;&quot;&gt;0x1008&lt;/font&gt;&lt;/b&gt;" style="shape=partialRectangle;html=1;whiteSpace=wrap;connectable=0;overflow=hidden;fillColor=none;top=0;left=0;bottom=0;right=0;pointerEvents=1;fillStyle=auto;" parent="39" vertex="1">
                    <mxGeometry width="70" height="40" as="geometry">
                        <mxRectangle width="70" height="40" as="alternateBounds"/>
                    </mxGeometry>
                </mxCell>
                <mxCell id="41" value="&lt;font style=&quot;font-size: 17px;&quot;&gt;&lt;b&gt;DATA&lt;/b&gt;&lt;/font&gt;" style="shape=partialRectangle;html=1;whiteSpace=wrap;connectable=0;overflow=hidden;fillColor=none;top=0;left=0;bottom=0;right=0;pointerEvents=1;fillStyle=auto;" parent="39" vertex="1">
                    <mxGeometry x="70" width="70" height="40" as="geometry">
                        <mxRectangle width="70" height="40" as="alternateBounds"/>
                    </mxGeometry>
                </mxCell>
                <mxCell id="42" value="&lt;b style=&quot;&quot;&gt;&lt;font style=&quot;font-size: 17px; background-color: rgb(255, 51, 51);&quot;&gt;0x1020&lt;/font&gt;&lt;/b&gt;" style="shape=partialRectangle;html=1;whiteSpace=wrap;connectable=0;overflow=hidden;fillColor=none;top=0;left=0;bottom=0;right=0;pointerEvents=1;fillStyle=auto;" parent="39" vertex="1">
                    <mxGeometry x="140" width="70" height="40" as="geometry">
                        <mxRectangle width="70" height="40" as="alternateBounds"/>
                    </mxGeometry>
                </mxCell>
                <mxCell id="48" value="" style="shape=table;startSize=0;container=1;collapsible=0;childLayout=tableLayout;fillStyle=auto;" parent="1" vertex="1">
                    <mxGeometry x="530" y="211" width="210" height="40" as="geometry"/>
                </mxCell>
                <mxCell id="49" value="" style="shape=tableRow;horizontal=0;startSize=0;swimlaneHead=0;swimlaneBody=0;top=0;left=0;bottom=0;right=0;collapsible=0;dropTarget=0;fillColor=none;points=[[0,0.5],[1,0.5]];portConstraint=eastwest;fillStyle=auto;" parent="48" vertex="1">
                    <mxGeometry width="210" height="40" as="geometry"/>
                </mxCell>
                <mxCell id="50" value="&lt;b style=&quot;background-color: rgb(0, 204, 0);&quot;&gt;&lt;font style=&quot;font-size: 17px;&quot;&gt;0x1000&lt;/font&gt;&lt;/b&gt;" style="shape=partialRectangle;html=1;whiteSpace=wrap;connectable=0;overflow=hidden;fillColor=none;top=0;left=0;bottom=0;right=0;pointerEvents=1;fillStyle=auto;" parent="49" vertex="1">
                    <mxGeometry width="70" height="40" as="geometry">
                        <mxRectangle width="70" height="40" as="alternateBounds"/>
                    </mxGeometry>
                </mxCell>
                <mxCell id="51" value="&lt;b&gt;&lt;font style=&quot;font-size: 17px;&quot;&gt;DATA&lt;/font&gt;&lt;/b&gt;" style="shape=partialRectangle;html=1;whiteSpace=wrap;connectable=0;overflow=hidden;fillColor=none;top=0;left=0;bottom=0;right=0;pointerEvents=1;fillStyle=auto;" parent="49" vertex="1">
                    <mxGeometry x="70" width="70" height="40" as="geometry">
                        <mxRectangle width="70" height="40" as="alternateBounds"/>
                    </mxGeometry>
                </mxCell>
                <mxCell id="52" value="&lt;b style=&quot;&quot;&gt;&lt;font style=&quot;font-size: 17px; background-color: rgb(255, 51, 51);&quot;&gt;0x1016&lt;/font&gt;&lt;/b&gt;" style="shape=partialRectangle;html=1;whiteSpace=wrap;connectable=0;overflow=hidden;fillColor=none;top=0;left=0;bottom=0;right=0;pointerEvents=1;fillStyle=auto;" parent="49" vertex="1">
                    <mxGeometry x="140" width="70" height="40" as="geometry">
                        <mxRectangle width="70" height="40" as="alternateBounds"/>
                    </mxGeometry>
                </mxCell>
                <mxCell id="64" value="" style="shape=table;startSize=0;container=1;collapsible=0;childLayout=tableLayout;fillStyle=auto;" parent="1" vertex="1">
                    <mxGeometry x="530" y="451" width="210" height="40" as="geometry"/>
                </mxCell>
                <mxCell id="65" value="" style="shape=tableRow;horizontal=0;startSize=0;swimlaneHead=0;swimlaneBody=0;top=0;left=0;bottom=0;right=0;collapsible=0;dropTarget=0;fillColor=none;points=[[0,0.5],[1,0.5]];portConstraint=eastwest;fillStyle=auto;" parent="64" vertex="1">
                    <mxGeometry width="210" height="40" as="geometry"/>
                </mxCell>
                <mxCell id="66" value="&lt;b style=&quot;background-color: rgb(0, 204, 0);&quot;&gt;&lt;font style=&quot;font-size: 17px;&quot;&gt;0x1016&lt;/font&gt;&lt;/b&gt;" style="shape=partialRectangle;html=1;whiteSpace=wrap;connectable=0;overflow=hidden;fillColor=none;top=0;left=0;bottom=0;right=0;pointerEvents=1;fillStyle=auto;" parent="65" vertex="1">
                    <mxGeometry width="70" height="40" as="geometry">
                        <mxRectangle width="70" height="40" as="alternateBounds"/>
                    </mxGeometry>
                </mxCell>
                <mxCell id="67" value="&lt;font style=&quot;font-size: 17px;&quot;&gt;&lt;b&gt;DATA&lt;/b&gt;&lt;/font&gt;" style="shape=partialRectangle;html=1;whiteSpace=wrap;connectable=0;overflow=hidden;fillColor=none;top=0;left=0;bottom=0;right=0;pointerEvents=1;fillStyle=auto;" parent="65" vertex="1">
                    <mxGeometry x="70" width="70" height="40" as="geometry">
                        <mxRectangle width="70" height="40" as="alternateBounds"/>
                    </mxGeometry>
                </mxCell>
                <mxCell id="68" value="&lt;b style=&quot;&quot;&gt;&lt;font style=&quot;font-size: 17px; background-color: rgb(255, 51, 51);&quot;&gt;NULL&lt;/font&gt;&lt;/b&gt;" style="shape=partialRectangle;html=1;whiteSpace=wrap;connectable=0;overflow=hidden;fillColor=none;top=0;left=0;bottom=0;right=0;pointerEvents=1;fillStyle=auto;" parent="65" vertex="1">
                    <mxGeometry x="140" width="70" height="40" as="geometry">
                        <mxRectangle width="70" height="40" as="alternateBounds"/>
                    </mxGeometry>
                </mxCell>
                <mxCell id="69" value="&lt;font style=&quot;font-size: 15px;&quot;&gt;HEAD NODE&lt;br&gt;Address is 0x1000&lt;/font&gt;" style="text;html=1;strokeColor=#6F0000;fillColor=#a20025;align=center;verticalAlign=middle;whiteSpace=wrap;rounded=0;fillStyle=auto;fontColor=#ffffff;" parent="1" vertex="1">
                    <mxGeometry x="390" y="96" width="139" height="30" as="geometry"/>
                </mxCell>
                <mxCell id="70" value="&lt;font style=&quot;font-size: 15px;&quot;&gt;Address is 0x1008&lt;/font&gt;" style="text;html=1;strokeColor=#6F0000;fillColor=#a20025;align=center;verticalAlign=middle;whiteSpace=wrap;rounded=0;fillStyle=auto;fontColor=#ffffff;" parent="1" vertex="1">
                    <mxGeometry x="390" y="216" width="139" height="30" as="geometry"/>
                </mxCell>
                <mxCell id="74" value="" style="curved=1;endArrow=classic;html=1;exitX=1;exitY=0.5;exitDx=0;exitDy=0;entryX=0.5;entryY=0;entryDx=0;entryDy=0;" parent="1" source="24" target="70" edge="1">
                    <mxGeometry width="50" height="50" relative="1" as="geometry">
                        <mxPoint x="640" y="371" as="sourcePoint"/>
                        <mxPoint x="500" y="211" as="targetPoint"/>
                        <Array as="points">
                            <mxPoint x="825" y="161"/>
                            <mxPoint x="620" y="171"/>
                            <mxPoint x="430" y="161"/>
                        </Array>
                    </mxGeometry>
                </mxCell>
                <mxCell id="75" value="" style="curved=1;endArrow=classic;html=1;exitX=1;exitY=0.5;exitDx=0;exitDy=0;entryX=0.5;entryY=0;entryDx=0;entryDy=0;" parent="1" source="49" target="80" edge="1">
                    <mxGeometry width="50" height="50" relative="1" as="geometry">
                        <mxPoint x="755.0000000000002" y="231" as="sourcePoint"/>
                        <mxPoint x="490" y="336" as="targetPoint"/>
                        <Array as="points">
                            <mxPoint x="825" y="281"/>
                            <mxPoint x="635" y="291"/>
                            <mxPoint x="445" y="281"/>
                        </Array>
                    </mxGeometry>
                </mxCell>
                <mxCell id="76" value="" style="curved=1;endArrow=classic;html=1;exitX=1;exitY=0.5;exitDx=0;exitDy=0;entryX=0.5;entryY=0;entryDx=0;entryDy=0;" parent="1" source="39" target="81" edge="1">
                    <mxGeometry width="50" height="50" relative="1" as="geometry">
                        <mxPoint x="755.0000000000002" y="351" as="sourcePoint"/>
                        <mxPoint x="480" y="441" as="targetPoint"/>
                        <Array as="points">
                            <mxPoint x="825" y="401"/>
                            <mxPoint x="635" y="411"/>
                            <mxPoint x="445" y="401"/>
                        </Array>
                    </mxGeometry>
                </mxCell>
                <mxCell id="77" value="" style="curved=1;endArrow=classic;html=1;rounded=1;labelBackgroundColor=default;strokeColor=default;fontFamily=Helvetica;fontSize=11;fontColor=default;shape=connector;entryX=0.5;entryY=1;entryDx=0;entryDy=0;" parent="1" source="49" target="69" edge="1">
                    <mxGeometry width="50" height="50" relative="1" as="geometry">
                        <mxPoint x="630" y="341" as="sourcePoint"/>
                        <mxPoint x="460" y="151" as="targetPoint"/>
                        <Array as="points">
                            <mxPoint x="530" y="271"/>
                            <mxPoint x="430" y="281"/>
                            <mxPoint x="340" y="261"/>
                            <mxPoint x="370" y="181"/>
                        </Array>
                    </mxGeometry>
                </mxCell>
                <mxCell id="80" value="&lt;font style=&quot;font-size: 15px;&quot;&gt;Address is 0x1016&lt;/font&gt;" style="text;html=1;strokeColor=#6F0000;fillColor=#a20025;align=center;verticalAlign=middle;whiteSpace=wrap;rounded=0;fillStyle=auto;fontColor=#ffffff;" parent="1" vertex="1">
                    <mxGeometry x="390" y="336" width="139" height="30" as="geometry"/>
                </mxCell>
                <mxCell id="81" value="&lt;font style=&quot;font-size: 15px;&quot;&gt;Address is 0x1020&lt;br&gt;&lt;/font&gt;" style="text;html=1;strokeColor=#6F0000;fillColor=#a20025;align=center;verticalAlign=middle;whiteSpace=wrap;rounded=0;fillStyle=auto;fontColor=#ffffff;" parent="1" vertex="1">
                    <mxGeometry x="390" y="456" width="139" height="30" as="geometry"/>
                </mxCell>
                <mxCell id="82" value="" style="curved=1;endArrow=classic;html=1;rounded=1;labelBackgroundColor=default;strokeColor=default;fontFamily=Helvetica;fontSize=11;fontColor=default;shape=connector;entryX=0.5;entryY=1;entryDx=0;entryDy=0;" parent="1" source="39" target="70" edge="1">
                    <mxGeometry width="50" height="50" relative="1" as="geometry">
                        <mxPoint x="574.45" y="371.15999999999997" as="sourcePoint"/>
                        <mxPoint x="464" y="261" as="targetPoint"/>
                        <Array as="points">
                            <mxPoint x="534.55" y="391"/>
                            <mxPoint x="434.55" y="401"/>
                            <mxPoint x="344.55" y="381"/>
                            <mxPoint x="374.55" y="301"/>
                        </Array>
                    </mxGeometry>
                </mxCell>
                <mxCell id="83" value="" style="curved=1;endArrow=classic;html=1;rounded=1;labelBackgroundColor=default;strokeColor=default;fontFamily=Helvetica;fontSize=11;fontColor=default;shape=connector;entryX=0.5;entryY=1;entryDx=0;entryDy=0;" parent="1" source="65" target="80" edge="1">
                    <mxGeometry width="50" height="50" relative="1" as="geometry">
                        <mxPoint x="570" y="501" as="sourcePoint"/>
                        <mxPoint x="460" y="391" as="targetPoint"/>
                        <Array as="points">
                            <mxPoint x="530" y="511"/>
                            <mxPoint x="430" y="521"/>
                            <mxPoint x="340" y="501"/>
                            <mxPoint x="370" y="421"/>
                        </Array>
                    </mxGeometry>
                </mxCell>
                <mxCell id="144" value="" style="shape=table;startSize=0;container=1;collapsible=0;childLayout=tableLayout;fillStyle=auto;" parent="1" vertex="1">
                    <mxGeometry x="620" y="640" width="140" height="40" as="geometry"/>
                </mxCell>
                <mxCell id="145" value="" style="shape=tableRow;horizontal=0;startSize=0;swimlaneHead=0;swimlaneBody=0;top=0;left=0;bottom=0;right=0;collapsible=0;dropTarget=0;fillColor=none;points=[[0,0.5],[1,0.5]];portConstraint=eastwest;fillStyle=auto;" parent="144" vertex="1">
                    <mxGeometry width="140" height="40" as="geometry"/>
                </mxCell>
                <mxCell id="147" value="&lt;b style=&quot;font-size: 17px;&quot;&gt;DATA&lt;/b&gt;" style="shape=partialRectangle;html=1;whiteSpace=wrap;connectable=0;overflow=hidden;fillColor=none;top=0;left=0;bottom=0;right=0;pointerEvents=1;fillStyle=auto;" parent="145" vertex="1">
                    <mxGeometry width="70" height="40" as="geometry">
                        <mxRectangle width="70" height="40" as="alternateBounds"/>
                    </mxGeometry>
                </mxCell>
                <mxCell id="148" value="&lt;b style=&quot;&quot;&gt;&lt;font style=&quot;font-size: 17px; background-color: rgb(255, 51, 51);&quot;&gt;0x1008&lt;/font&gt;&lt;/b&gt;" style="shape=partialRectangle;html=1;whiteSpace=wrap;connectable=0;overflow=hidden;fillColor=none;top=0;left=0;bottom=0;right=0;pointerEvents=1;fillStyle=auto;" parent="145" vertex="1">
                    <mxGeometry x="70" width="70" height="40" as="geometry">
                        <mxRectangle width="70" height="40" as="alternateBounds"/>
                    </mxGeometry>
                </mxCell>
                <mxCell id="149" value="" style="shape=table;startSize=0;container=1;collapsible=0;childLayout=tableLayout;fillStyle=auto;" parent="1" vertex="1">
                    <mxGeometry x="620" y="880" width="140" height="40" as="geometry"/>
                </mxCell>
                <mxCell id="150" value="" style="shape=tableRow;horizontal=0;startSize=0;swimlaneHead=0;swimlaneBody=0;top=0;left=0;bottom=0;right=0;collapsible=0;dropTarget=0;fillColor=none;points=[[0,0.5],[1,0.5]];portConstraint=eastwest;fillStyle=auto;" parent="149" vertex="1">
                    <mxGeometry width="140" height="40" as="geometry"/>
                </mxCell>
                <mxCell id="152" value="&lt;b style=&quot;font-size: 17px;&quot;&gt;DATA&lt;/b&gt;" style="shape=partialRectangle;html=1;whiteSpace=wrap;connectable=0;overflow=hidden;fillColor=none;top=0;left=0;bottom=0;right=0;pointerEvents=1;fillStyle=auto;" parent="150" vertex="1">
                    <mxGeometry width="70" height="40" as="geometry">
                        <mxRectangle width="70" height="40" as="alternateBounds"/>
                    </mxGeometry>
                </mxCell>
                <mxCell id="153" value="&lt;b style=&quot;&quot;&gt;&lt;font style=&quot;font-size: 17px; background-color: rgb(255, 51, 51);&quot;&gt;0x1020&lt;/font&gt;&lt;/b&gt;" style="shape=partialRectangle;html=1;whiteSpace=wrap;connectable=0;overflow=hidden;fillColor=none;top=0;left=0;bottom=0;right=0;pointerEvents=1;fillStyle=auto;" parent="150" vertex="1">
                    <mxGeometry x="70" width="70" height="40" as="geometry">
                        <mxRectangle width="70" height="40" as="alternateBounds"/>
                    </mxGeometry>
                </mxCell>
                <mxCell id="154" value="" style="shape=table;startSize=0;container=1;collapsible=0;childLayout=tableLayout;fillStyle=auto;" parent="1" vertex="1">
                    <mxGeometry x="620" y="760" width="140" height="40" as="geometry"/>
                </mxCell>
                <mxCell id="155" value="" style="shape=tableRow;horizontal=0;startSize=0;swimlaneHead=0;swimlaneBody=0;top=0;left=0;bottom=0;right=0;collapsible=0;dropTarget=0;fillColor=none;points=[[0,0.5],[1,0.5]];portConstraint=eastwest;fillStyle=auto;" parent="154" vertex="1">
                    <mxGeometry width="140" height="40" as="geometry"/>
                </mxCell>
                <mxCell id="157" value="&lt;b style=&quot;font-size: 17px;&quot;&gt;DATA&lt;/b&gt;" style="shape=partialRectangle;html=1;whiteSpace=wrap;connectable=0;overflow=hidden;fillColor=none;top=0;left=0;bottom=0;right=0;pointerEvents=1;fillStyle=auto;" parent="155" vertex="1">
                    <mxGeometry width="70" height="40" as="geometry">
                        <mxRectangle width="70" height="40" as="alternateBounds"/>
                    </mxGeometry>
                </mxCell>
                <mxCell id="158" value="&lt;b style=&quot;&quot;&gt;&lt;font style=&quot;font-size: 17px; background-color: rgb(255, 51, 51);&quot;&gt;0x1016&lt;/font&gt;&lt;/b&gt;" style="shape=partialRectangle;html=1;whiteSpace=wrap;connectable=0;overflow=hidden;fillColor=none;top=0;left=0;bottom=0;right=0;pointerEvents=1;fillStyle=auto;" parent="155" vertex="1">
                    <mxGeometry x="70" width="70" height="40" as="geometry">
                        <mxRectangle width="70" height="40" as="alternateBounds"/>
                    </mxGeometry>
                </mxCell>
                <mxCell id="159" value="" style="shape=table;startSize=0;container=1;collapsible=0;childLayout=tableLayout;fillStyle=auto;" parent="1" vertex="1">
                    <mxGeometry x="620" y="1000" width="140" height="40" as="geometry"/>
                </mxCell>
                <mxCell id="160" value="" style="shape=tableRow;horizontal=0;startSize=0;swimlaneHead=0;swimlaneBody=0;top=0;left=0;bottom=0;right=0;collapsible=0;dropTarget=0;fillColor=none;points=[[0,0.5],[1,0.5]];portConstraint=eastwest;fillStyle=auto;" parent="159" vertex="1">
                    <mxGeometry width="140" height="40" as="geometry"/>
                </mxCell>
                <mxCell id="162" value="&lt;b style=&quot;font-size: 17px;&quot;&gt;DATA&lt;/b&gt;" style="shape=partialRectangle;html=1;whiteSpace=wrap;connectable=0;overflow=hidden;fillColor=none;top=0;left=0;bottom=0;right=0;pointerEvents=1;fillStyle=auto;" parent="160" vertex="1">
                    <mxGeometry width="70" height="40" as="geometry">
                        <mxRectangle width="70" height="40" as="alternateBounds"/>
                    </mxGeometry>
                </mxCell>
                <mxCell id="163" value="&lt;span style=&quot;font-size: 17px; background-color: rgb(255, 51, 51);&quot;&gt;&lt;b&gt;0x1000&lt;/b&gt;&lt;/span&gt;" style="shape=partialRectangle;html=1;whiteSpace=wrap;connectable=0;overflow=hidden;fillColor=none;top=0;left=0;bottom=0;right=0;pointerEvents=1;fillStyle=auto;" parent="160" vertex="1">
                    <mxGeometry x="70" width="70" height="40" as="geometry">
                        <mxRectangle width="70" height="40" as="alternateBounds"/>
                    </mxGeometry>
                </mxCell>
                <mxCell id="164" value="&lt;font style=&quot;font-size: 15px;&quot;&gt;HEAD NODE&lt;br&gt;Address is 0x1000&lt;/font&gt;" style="text;html=1;strokeColor=#6F0000;fillColor=#a20025;align=center;verticalAlign=middle;whiteSpace=wrap;rounded=0;fillStyle=auto;fontColor=#ffffff;" parent="1" vertex="1">
                    <mxGeometry x="480" y="645" width="139" height="30" as="geometry"/>
                </mxCell>
                <mxCell id="165" value="&lt;font style=&quot;font-size: 15px;&quot;&gt;Address is 0x1008&lt;/font&gt;" style="text;html=1;strokeColor=#6F0000;fillColor=#a20025;align=center;verticalAlign=middle;whiteSpace=wrap;rounded=0;fillStyle=auto;fontColor=#ffffff;" parent="1" vertex="1">
                    <mxGeometry x="480" y="765" width="139" height="30" as="geometry"/>
                </mxCell>
                <mxCell id="166" value="" style="curved=1;endArrow=classic;html=1;exitX=1;exitY=0.5;exitDx=0;exitDy=0;entryX=0.5;entryY=0;entryDx=0;entryDy=0;" parent="1" source="145" target="165" edge="1">
                    <mxGeometry width="50" height="50" relative="1" as="geometry">
                        <mxPoint x="730" y="920" as="sourcePoint"/>
                        <mxPoint x="650" y="950" as="targetPoint"/>
                        <Array as="points">
                            <mxPoint x="800" y="705"/>
                            <mxPoint x="710" y="720"/>
                            <mxPoint x="520" y="710"/>
                        </Array>
                    </mxGeometry>
                </mxCell>
                <mxCell id="170" value="&lt;font style=&quot;font-size: 15px;&quot;&gt;Address is 0x1016&lt;/font&gt;" style="text;html=1;strokeColor=#6F0000;fillColor=#a20025;align=center;verticalAlign=middle;whiteSpace=wrap;rounded=0;fillStyle=auto;fontColor=#ffffff;" parent="1" vertex="1">
                    <mxGeometry x="480" y="885" width="139" height="30" as="geometry"/>
                </mxCell>
                <mxCell id="171" value="&lt;font style=&quot;font-size: 15px;&quot;&gt;Address is 0x1020&lt;/font&gt;" style="text;html=1;strokeColor=#6F0000;fillColor=#a20025;align=center;verticalAlign=middle;whiteSpace=wrap;rounded=0;fillStyle=auto;fontColor=#ffffff;" parent="1" vertex="1">
                    <mxGeometry x="480" y="1005" width="139" height="30" as="geometry"/>
                </mxCell>
                <mxCell id="176" value="" style="curved=1;endArrow=classic;html=1;exitX=1;exitY=0.5;exitDx=0;exitDy=0;entryX=0.5;entryY=0;entryDx=0;entryDy=0;" parent="1" edge="1">
                    <mxGeometry width="50" height="50" relative="1" as="geometry">
                        <mxPoint x="760" y="780" as="sourcePoint"/>
                        <mxPoint x="549.5" y="885" as="targetPoint"/>
                        <Array as="points">
                            <mxPoint x="800" y="825"/>
                            <mxPoint x="710" y="840"/>
                            <mxPoint x="520" y="830"/>
                        </Array>
                    </mxGeometry>
                </mxCell>
                <mxCell id="177" value="" style="curved=1;endArrow=classic;html=1;exitX=1;exitY=0.5;exitDx=0;exitDy=0;entryX=0.5;entryY=0;entryDx=0;entryDy=0;" parent="1" edge="1">
                    <mxGeometry width="50" height="50" relative="1" as="geometry">
                        <mxPoint x="760" y="900" as="sourcePoint"/>
                        <mxPoint x="549.5" y="1005" as="targetPoint"/>
                        <Array as="points">
                            <mxPoint x="800" y="945"/>
                            <mxPoint x="710" y="960"/>
                            <mxPoint x="520" y="950"/>
                        </Array>
                    </mxGeometry>
                </mxCell>
                <mxCell id="178" value="" style="curved=1;endArrow=classic;html=1;rounded=1;labelBackgroundColor=default;strokeColor=default;fontFamily=Helvetica;fontSize=15;fontColor=#33FF33;shape=connector;entryX=0;entryY=0.5;entryDx=0;entryDy=0;exitX=1;exitY=0.5;exitDx=0;exitDy=0;" parent="1" source="160" target="164" edge="1">
                    <mxGeometry width="50" height="50" relative="1" as="geometry">
                        <mxPoint x="890" y="830" as="sourcePoint"/>
                        <mxPoint x="850" y="820" as="targetPoint"/>
                        <Array as="points">
                            <mxPoint x="810" y="1070"/>
                            <mxPoint x="640" y="1090"/>
                            <mxPoint x="410" y="1060"/>
                            <mxPoint x="420" y="660"/>
                        </Array>
                    </mxGeometry>
                </mxCell>
                <mxCell id="182" value="&lt;font style=&quot;font-size: 14px; background-color: rgb(102, 102, 255);&quot;&gt;Pre Node&lt;/font&gt;" style="text;html=1;strokeColor=none;fillColor=none;align=center;verticalAlign=middle;whiteSpace=wrap;rounded=0;labelBackgroundColor=#333333;fillStyle=auto;fontFamily=Helvetica;fontSize=15;fontColor=#FFFFFF;" parent="1" vertex="1">
                    <mxGeometry x="530" y="61" width="70" height="30" as="geometry"/>
                </mxCell>
                <mxCell id="183" value="&lt;font color=&quot;#ffffff&quot; style=&quot;font-size: 14px; background-color: rgb(102, 102, 255);&quot;&gt;Next Node&lt;/font&gt;" style="text;html=1;strokeColor=none;fillColor=none;align=center;verticalAlign=middle;whiteSpace=wrap;rounded=0;labelBackgroundColor=#333333;fillStyle=auto;fontFamily=Helvetica;fontSize=15;fontColor=#6666FF;" parent="1" vertex="1">
                    <mxGeometry x="670" y="61" width="70" height="30" as="geometry"/>
                </mxCell>
                <mxCell id="184" value="&lt;font color=&quot;#ffffff&quot;&gt;&lt;span style=&quot;font-size: 14px; background-color: rgb(102, 102, 255);&quot;&gt;Data&lt;/span&gt;&lt;/font&gt;" style="text;html=1;strokeColor=none;fillColor=none;align=center;verticalAlign=middle;whiteSpace=wrap;rounded=0;labelBackgroundColor=#333333;fillStyle=auto;fontFamily=Helvetica;fontSize=15;fontColor=#6666FF;" parent="1" vertex="1">
                    <mxGeometry x="600" y="61" width="70" height="30" as="geometry"/>
                </mxCell>
                <mxCell id="185" value="&lt;font style=&quot;font-size: 14px; background-color: rgb(102, 102, 255);&quot;&gt;Pre Node&lt;/font&gt;" style="text;html=1;strokeColor=none;fillColor=none;align=center;verticalAlign=middle;whiteSpace=wrap;rounded=0;labelBackgroundColor=#333333;fillStyle=auto;fontFamily=Helvetica;fontSize=15;fontColor=#FFFFFF;" parent="1" vertex="1">
                    <mxGeometry x="530" y="181" width="70" height="30" as="geometry"/>
                </mxCell>
                <mxCell id="186" value="&lt;font color=&quot;#ffffff&quot; style=&quot;font-size: 14px; background-color: rgb(102, 102, 255);&quot;&gt;Next Node&lt;/font&gt;" style="text;html=1;strokeColor=none;fillColor=none;align=center;verticalAlign=middle;whiteSpace=wrap;rounded=0;labelBackgroundColor=#333333;fillStyle=auto;fontFamily=Helvetica;fontSize=15;fontColor=#6666FF;" parent="1" vertex="1">
                    <mxGeometry x="670" y="181" width="70" height="30" as="geometry"/>
                </mxCell>
                <mxCell id="187" value="&lt;font color=&quot;#ffffff&quot;&gt;&lt;span style=&quot;font-size: 14px; background-color: rgb(102, 102, 255);&quot;&gt;Data&lt;/span&gt;&lt;/font&gt;" style="text;html=1;strokeColor=none;fillColor=none;align=center;verticalAlign=middle;whiteSpace=wrap;rounded=0;labelBackgroundColor=#333333;fillStyle=auto;fontFamily=Helvetica;fontSize=15;fontColor=#6666FF;" parent="1" vertex="1">
                    <mxGeometry x="600" y="181" width="70" height="30" as="geometry"/>
                </mxCell>
                <mxCell id="188" value="&lt;font style=&quot;font-size: 14px; background-color: rgb(102, 102, 255);&quot;&gt;Pre Node&lt;/font&gt;" style="text;html=1;strokeColor=none;fillColor=none;align=center;verticalAlign=middle;whiteSpace=wrap;rounded=0;labelBackgroundColor=#333333;fillStyle=auto;fontFamily=Helvetica;fontSize=15;fontColor=#FFFFFF;" parent="1" vertex="1">
                    <mxGeometry x="530" y="421" width="70" height="30" as="geometry"/>
                </mxCell>
                <mxCell id="189" value="&lt;font color=&quot;#ffffff&quot; style=&quot;font-size: 14px; background-color: rgb(102, 102, 255);&quot;&gt;Next Node&lt;/font&gt;" style="text;html=1;strokeColor=none;fillColor=none;align=center;verticalAlign=middle;whiteSpace=wrap;rounded=0;labelBackgroundColor=#333333;fillStyle=auto;fontFamily=Helvetica;fontSize=15;fontColor=#6666FF;" parent="1" vertex="1">
                    <mxGeometry x="670" y="421" width="70" height="30" as="geometry"/>
                </mxCell>
                <mxCell id="190" value="&lt;font color=&quot;#ffffff&quot;&gt;&lt;span style=&quot;font-size: 14px; background-color: rgb(102, 102, 255);&quot;&gt;Data&lt;/span&gt;&lt;/font&gt;" style="text;html=1;strokeColor=none;fillColor=none;align=center;verticalAlign=middle;whiteSpace=wrap;rounded=0;labelBackgroundColor=#333333;fillStyle=auto;fontFamily=Helvetica;fontSize=15;fontColor=#6666FF;" parent="1" vertex="1">
                    <mxGeometry x="600" y="421" width="70" height="30" as="geometry"/>
                </mxCell>
                <mxCell id="191" value="&lt;font style=&quot;font-size: 14px; background-color: rgb(102, 102, 255);&quot;&gt;Pre Node&lt;/font&gt;" style="text;html=1;strokeColor=none;fillColor=none;align=center;verticalAlign=middle;whiteSpace=wrap;rounded=0;labelBackgroundColor=#333333;fillStyle=auto;fontFamily=Helvetica;fontSize=15;fontColor=#FFFFFF;" parent="1" vertex="1">
                    <mxGeometry x="530" y="301" width="70" height="30" as="geometry"/>
                </mxCell>
                <mxCell id="192" value="&lt;font color=&quot;#ffffff&quot; style=&quot;font-size: 14px; background-color: rgb(102, 102, 255);&quot;&gt;Next Node&lt;/font&gt;" style="text;html=1;strokeColor=none;fillColor=none;align=center;verticalAlign=middle;whiteSpace=wrap;rounded=0;labelBackgroundColor=#333333;fillStyle=auto;fontFamily=Helvetica;fontSize=15;fontColor=#6666FF;" parent="1" vertex="1">
                    <mxGeometry x="670" y="301" width="70" height="30" as="geometry"/>
                </mxCell>
                <mxCell id="193" value="&lt;font color=&quot;#ffffff&quot;&gt;&lt;span style=&quot;font-size: 14px; background-color: rgb(102, 102, 255);&quot;&gt;Data&lt;/span&gt;&lt;/font&gt;" style="text;html=1;strokeColor=none;fillColor=none;align=center;verticalAlign=middle;whiteSpace=wrap;rounded=0;labelBackgroundColor=#333333;fillStyle=auto;fontFamily=Helvetica;fontSize=15;fontColor=#6666FF;" parent="1" vertex="1">
                    <mxGeometry x="600" y="301" width="70" height="30" as="geometry"/>
                </mxCell>
                <mxCell id="242" value="" style="shape=table;startSize=0;container=1;collapsible=0;childLayout=tableLayout;fillStyle=auto;" parent="1" vertex="1">
                    <mxGeometry x="1290" y="220" width="140" height="40" as="geometry"/>
                </mxCell>
                <mxCell id="243" value="" style="shape=tableRow;horizontal=0;startSize=0;swimlaneHead=0;swimlaneBody=0;top=0;left=0;bottom=0;right=0;collapsible=0;dropTarget=0;fillColor=none;points=[[0,0.5],[1,0.5]];portConstraint=eastwest;fillStyle=auto;" parent="242" vertex="1">
                    <mxGeometry width="140" height="40" as="geometry"/>
                </mxCell>
                <mxCell id="244" value="&lt;b style=&quot;font-size: 17px;&quot;&gt;DATA&lt;/b&gt;" style="shape=partialRectangle;html=1;whiteSpace=wrap;connectable=0;overflow=hidden;fillColor=none;top=0;left=0;bottom=0;right=0;pointerEvents=1;fillStyle=auto;" parent="243" vertex="1">
                    <mxGeometry width="70" height="40" as="geometry">
                        <mxRectangle width="70" height="40" as="alternateBounds"/>
                    </mxGeometry>
                </mxCell>
                <mxCell id="245" value="&lt;b style=&quot;&quot;&gt;&lt;font style=&quot;font-size: 17px; background-color: rgb(255, 51, 51);&quot;&gt;0x1008&lt;/font&gt;&lt;/b&gt;" style="shape=partialRectangle;html=1;whiteSpace=wrap;connectable=0;overflow=hidden;fillColor=none;top=0;left=0;bottom=0;right=0;pointerEvents=1;fillStyle=auto;" parent="243" vertex="1">
                    <mxGeometry x="70" width="70" height="40" as="geometry">
                        <mxRectangle width="70" height="40" as="alternateBounds"/>
                    </mxGeometry>
                </mxCell>
                <mxCell id="246" value="" style="shape=table;startSize=0;container=1;collapsible=0;childLayout=tableLayout;fillStyle=auto;" parent="1" vertex="1">
                    <mxGeometry x="1290" y="460" width="140" height="40" as="geometry"/>
                </mxCell>
                <mxCell id="247" value="" style="shape=tableRow;horizontal=0;startSize=0;swimlaneHead=0;swimlaneBody=0;top=0;left=0;bottom=0;right=0;collapsible=0;dropTarget=0;fillColor=none;points=[[0,0.5],[1,0.5]];portConstraint=eastwest;fillStyle=auto;" parent="246" vertex="1">
                    <mxGeometry width="140" height="40" as="geometry"/>
                </mxCell>
                <mxCell id="248" value="&lt;b style=&quot;font-size: 17px;&quot;&gt;DATA&lt;/b&gt;" style="shape=partialRectangle;html=1;whiteSpace=wrap;connectable=0;overflow=hidden;fillColor=none;top=0;left=0;bottom=0;right=0;pointerEvents=1;fillStyle=auto;" parent="247" vertex="1">
                    <mxGeometry width="70" height="40" as="geometry">
                        <mxRectangle width="70" height="40" as="alternateBounds"/>
                    </mxGeometry>
                </mxCell>
                <mxCell id="249" value="&lt;b style=&quot;&quot;&gt;&lt;font style=&quot;font-size: 17px; background-color: rgb(255, 51, 51);&quot;&gt;0x1020&lt;/font&gt;&lt;/b&gt;" style="shape=partialRectangle;html=1;whiteSpace=wrap;connectable=0;overflow=hidden;fillColor=none;top=0;left=0;bottom=0;right=0;pointerEvents=1;fillStyle=auto;" parent="247" vertex="1">
                    <mxGeometry x="70" width="70" height="40" as="geometry">
                        <mxRectangle width="70" height="40" as="alternateBounds"/>
                    </mxGeometry>
                </mxCell>
                <mxCell id="250" value="" style="shape=table;startSize=0;container=1;collapsible=0;childLayout=tableLayout;fillStyle=auto;" parent="1" vertex="1">
                    <mxGeometry x="1290" y="340" width="140" height="40" as="geometry"/>
                </mxCell>
                <mxCell id="251" value="" style="shape=tableRow;horizontal=0;startSize=0;swimlaneHead=0;swimlaneBody=0;top=0;left=0;bottom=0;right=0;collapsible=0;dropTarget=0;fillColor=none;points=[[0,0.5],[1,0.5]];portConstraint=eastwest;fillStyle=auto;" parent="250" vertex="1">
                    <mxGeometry width="140" height="40" as="geometry"/>
                </mxCell>
                <mxCell id="252" value="&lt;b style=&quot;font-size: 17px;&quot;&gt;DATA&lt;/b&gt;" style="shape=partialRectangle;html=1;whiteSpace=wrap;connectable=0;overflow=hidden;fillColor=none;top=0;left=0;bottom=0;right=0;pointerEvents=1;fillStyle=auto;" parent="251" vertex="1">
                    <mxGeometry width="70" height="40" as="geometry">
                        <mxRectangle width="70" height="40" as="alternateBounds"/>
                    </mxGeometry>
                </mxCell>
                <mxCell id="253" value="&lt;b style=&quot;&quot;&gt;&lt;font style=&quot;font-size: 17px; background-color: rgb(255, 51, 51);&quot;&gt;0x1016&lt;/font&gt;&lt;/b&gt;" style="shape=partialRectangle;html=1;whiteSpace=wrap;connectable=0;overflow=hidden;fillColor=none;top=0;left=0;bottom=0;right=0;pointerEvents=1;fillStyle=auto;" parent="251" vertex="1">
                    <mxGeometry x="70" width="70" height="40" as="geometry">
                        <mxRectangle width="70" height="40" as="alternateBounds"/>
                    </mxGeometry>
                </mxCell>
                <mxCell id="254" value="" style="shape=table;startSize=0;container=1;collapsible=0;childLayout=tableLayout;fillStyle=auto;" parent="1" vertex="1">
                    <mxGeometry x="1290" y="580" width="140" height="40" as="geometry"/>
                </mxCell>
                <mxCell id="255" value="" style="shape=tableRow;horizontal=0;startSize=0;swimlaneHead=0;swimlaneBody=0;top=0;left=0;bottom=0;right=0;collapsible=0;dropTarget=0;fillColor=none;points=[[0,0.5],[1,0.5]];portConstraint=eastwest;fillStyle=auto;" parent="254" vertex="1">
                    <mxGeometry width="140" height="40" as="geometry"/>
                </mxCell>
                <mxCell id="256" value="&lt;b style=&quot;font-size: 17px;&quot;&gt;DATA&lt;/b&gt;" style="shape=partialRectangle;html=1;whiteSpace=wrap;connectable=0;overflow=hidden;fillColor=none;top=0;left=0;bottom=0;right=0;pointerEvents=1;fillStyle=auto;" parent="255" vertex="1">
                    <mxGeometry width="70" height="40" as="geometry">
                        <mxRectangle width="70" height="40" as="alternateBounds"/>
                    </mxGeometry>
                </mxCell>
                <mxCell id="257" value="&lt;span style=&quot;font-size: 17px; background-color: rgb(255, 51, 51);&quot;&gt;&lt;b&gt;NULL&lt;/b&gt;&lt;/span&gt;" style="shape=partialRectangle;html=1;whiteSpace=wrap;connectable=0;overflow=hidden;fillColor=none;top=0;left=0;bottom=0;right=0;pointerEvents=1;fillStyle=auto;" parent="255" vertex="1">
                    <mxGeometry x="70" width="70" height="40" as="geometry">
                        <mxRectangle width="70" height="40" as="alternateBounds"/>
                    </mxGeometry>
                </mxCell>
                <mxCell id="258" value="&lt;font style=&quot;font-size: 15px;&quot;&gt;HEAD NODE&lt;br&gt;Address is 0x1000&lt;/font&gt;" style="text;html=1;strokeColor=#6F0000;fillColor=#a20025;align=center;verticalAlign=middle;whiteSpace=wrap;rounded=0;fillStyle=auto;fontColor=#ffffff;" parent="1" vertex="1">
                    <mxGeometry x="1150" y="225" width="139" height="30" as="geometry"/>
                </mxCell>
                <mxCell id="259" value="&lt;font style=&quot;font-size: 15px;&quot;&gt;Address is 0x1008&lt;/font&gt;" style="text;html=1;strokeColor=#6F0000;fillColor=#a20025;align=center;verticalAlign=middle;whiteSpace=wrap;rounded=0;fillStyle=auto;fontColor=#ffffff;" parent="1" vertex="1">
                    <mxGeometry x="1150" y="345" width="139" height="30" as="geometry"/>
                </mxCell>
                <mxCell id="260" value="" style="curved=1;endArrow=classic;html=1;exitX=1;exitY=0.5;exitDx=0;exitDy=0;entryX=0.5;entryY=0;entryDx=0;entryDy=0;" parent="1" source="243" target="259" edge="1">
                    <mxGeometry width="50" height="50" relative="1" as="geometry">
                        <mxPoint x="1400" y="500" as="sourcePoint"/>
                        <mxPoint x="1320" y="530" as="targetPoint"/>
                        <Array as="points">
                            <mxPoint x="1470" y="270"/>
                            <mxPoint x="1380" y="300"/>
                            <mxPoint x="1190" y="290"/>
                        </Array>
                    </mxGeometry>
                </mxCell>
                <mxCell id="261" value="&lt;font style=&quot;font-size: 15px;&quot;&gt;Address is 0x1016&lt;/font&gt;" style="text;html=1;strokeColor=#6F0000;fillColor=#a20025;align=center;verticalAlign=middle;whiteSpace=wrap;rounded=0;fillStyle=auto;fontColor=#ffffff;" parent="1" vertex="1">
                    <mxGeometry x="1150" y="465" width="139" height="30" as="geometry"/>
                </mxCell>
                <mxCell id="262" value="&lt;font style=&quot;font-size: 15px;&quot;&gt;Address is 0x1020&lt;/font&gt;" style="text;html=1;strokeColor=#6F0000;fillColor=#a20025;align=center;verticalAlign=middle;whiteSpace=wrap;rounded=0;fillStyle=auto;fontColor=#ffffff;" parent="1" vertex="1">
                    <mxGeometry x="1150" y="585" width="139" height="30" as="geometry"/>
                </mxCell>
                <mxCell id="263" value="" style="curved=1;endArrow=classic;html=1;exitX=1;exitY=0.5;exitDx=0;exitDy=0;entryX=0.5;entryY=0;entryDx=0;entryDy=0;" parent="1" edge="1">
                    <mxGeometry width="50" height="50" relative="1" as="geometry">
                        <mxPoint x="1430" y="360" as="sourcePoint"/>
                        <mxPoint x="1219.5" y="465" as="targetPoint"/>
                        <Array as="points">
                            <mxPoint x="1470" y="400"/>
                            <mxPoint x="1380" y="420"/>
                            <mxPoint x="1190" y="410"/>
                        </Array>
                    </mxGeometry>
                </mxCell>
                <mxCell id="264" value="" style="curved=1;endArrow=classic;html=1;exitX=1;exitY=0.5;exitDx=0;exitDy=0;entryX=0.5;entryY=0;entryDx=0;entryDy=0;" parent="1" edge="1">
                    <mxGeometry width="50" height="50" relative="1" as="geometry">
                        <mxPoint x="1430" y="480" as="sourcePoint"/>
                        <mxPoint x="1219.5" y="585" as="targetPoint"/>
                        <Array as="points">
                            <mxPoint x="1470" y="530"/>
                            <mxPoint x="1380" y="540"/>
                            <mxPoint x="1190" y="530"/>
                        </Array>
                    </mxGeometry>
                </mxCell>
                <mxCell id="268" value="&lt;font color=&quot;#ffffff&quot; style=&quot;font-size: 14px; background-color: rgb(102, 102, 255);&quot;&gt;Next Node&lt;/font&gt;" style="text;html=1;strokeColor=none;fillColor=none;align=center;verticalAlign=middle;whiteSpace=wrap;rounded=0;labelBackgroundColor=#333333;fillStyle=auto;fontFamily=Helvetica;fontSize=15;fontColor=#6666FF;" parent="1" vertex="1">
                    <mxGeometry x="690" y="610" width="70" height="30" as="geometry"/>
                </mxCell>
                <mxCell id="269" value="&lt;font color=&quot;#ffffff&quot;&gt;&lt;span style=&quot;font-size: 14px; background-color: rgb(102, 102, 255);&quot;&gt;Data&lt;/span&gt;&lt;/font&gt;" style="text;html=1;strokeColor=none;fillColor=none;align=center;verticalAlign=middle;whiteSpace=wrap;rounded=0;labelBackgroundColor=#333333;fillStyle=auto;fontFamily=Helvetica;fontSize=15;fontColor=#6666FF;" parent="1" vertex="1">
                    <mxGeometry x="620" y="610" width="70" height="30" as="geometry"/>
                </mxCell>
                <mxCell id="270" value="&lt;font color=&quot;#ffffff&quot; style=&quot;font-size: 14px; background-color: rgb(102, 102, 255);&quot;&gt;Next Node&lt;/font&gt;" style="text;html=1;strokeColor=none;fillColor=none;align=center;verticalAlign=middle;whiteSpace=wrap;rounded=0;labelBackgroundColor=#333333;fillStyle=auto;fontFamily=Helvetica;fontSize=15;fontColor=#6666FF;" parent="1" vertex="1">
                    <mxGeometry x="689" y="970" width="70" height="30" as="geometry"/>
                </mxCell>
                <mxCell id="271" value="&lt;font color=&quot;#ffffff&quot;&gt;&lt;span style=&quot;font-size: 14px; background-color: rgb(102, 102, 255);&quot;&gt;Data&lt;/span&gt;&lt;/font&gt;" style="text;html=1;strokeColor=none;fillColor=none;align=center;verticalAlign=middle;whiteSpace=wrap;rounded=0;labelBackgroundColor=#333333;fillStyle=auto;fontFamily=Helvetica;fontSize=15;fontColor=#6666FF;" parent="1" vertex="1">
                    <mxGeometry x="619" y="970" width="70" height="30" as="geometry"/>
                </mxCell>
                <mxCell id="272" value="&lt;font color=&quot;#ffffff&quot; style=&quot;font-size: 14px; background-color: rgb(102, 102, 255);&quot;&gt;Next Node&lt;/font&gt;" style="text;html=1;strokeColor=none;fillColor=none;align=center;verticalAlign=middle;whiteSpace=wrap;rounded=0;labelBackgroundColor=#333333;fillStyle=auto;fontFamily=Helvetica;fontSize=15;fontColor=#6666FF;" parent="1" vertex="1">
                    <mxGeometry x="690" y="730" width="70" height="30" as="geometry"/>
                </mxCell>
                <mxCell id="273" value="&lt;font color=&quot;#ffffff&quot;&gt;&lt;span style=&quot;font-size: 14px; background-color: rgb(102, 102, 255);&quot;&gt;Data&lt;/span&gt;&lt;/font&gt;" style="text;html=1;strokeColor=none;fillColor=none;align=center;verticalAlign=middle;whiteSpace=wrap;rounded=0;labelBackgroundColor=#333333;fillStyle=auto;fontFamily=Helvetica;fontSize=15;fontColor=#6666FF;" parent="1" vertex="1">
                    <mxGeometry x="620" y="730" width="70" height="30" as="geometry"/>
                </mxCell>
                <mxCell id="274" value="&lt;font color=&quot;#ffffff&quot; style=&quot;font-size: 14px; background-color: rgb(102, 102, 255);&quot;&gt;Next Node&lt;/font&gt;" style="text;html=1;strokeColor=none;fillColor=none;align=center;verticalAlign=middle;whiteSpace=wrap;rounded=0;labelBackgroundColor=#333333;fillStyle=auto;fontFamily=Helvetica;fontSize=15;fontColor=#6666FF;" parent="1" vertex="1">
                    <mxGeometry x="690" y="850" width="70" height="30" as="geometry"/>
                </mxCell>
                <mxCell id="275" value="&lt;font color=&quot;#ffffff&quot;&gt;&lt;span style=&quot;font-size: 14px; background-color: rgb(102, 102, 255);&quot;&gt;Data&lt;/span&gt;&lt;/font&gt;" style="text;html=1;strokeColor=none;fillColor=none;align=center;verticalAlign=middle;whiteSpace=wrap;rounded=0;labelBackgroundColor=#333333;fillStyle=auto;fontFamily=Helvetica;fontSize=15;fontColor=#6666FF;" parent="1" vertex="1">
                    <mxGeometry x="620" y="850" width="70" height="30" as="geometry"/>
                </mxCell>
                <mxCell id="276" value="&lt;font color=&quot;#ffffff&quot; style=&quot;font-size: 14px; background-color: rgb(102, 102, 255);&quot;&gt;Next Node&lt;/font&gt;" style="text;html=1;strokeColor=none;fillColor=none;align=center;verticalAlign=middle;whiteSpace=wrap;rounded=0;labelBackgroundColor=#333333;fillStyle=auto;fontFamily=Helvetica;fontSize=15;fontColor=#6666FF;" parent="1" vertex="1">
                    <mxGeometry x="1360" y="190" width="70" height="30" as="geometry"/>
                </mxCell>
                <mxCell id="277" value="&lt;font color=&quot;#ffffff&quot;&gt;&lt;span style=&quot;font-size: 14px; background-color: rgb(102, 102, 255);&quot;&gt;Data&lt;/span&gt;&lt;/font&gt;" style="text;html=1;strokeColor=none;fillColor=none;align=center;verticalAlign=middle;whiteSpace=wrap;rounded=0;labelBackgroundColor=#333333;fillStyle=auto;fontFamily=Helvetica;fontSize=15;fontColor=#6666FF;" parent="1" vertex="1">
                    <mxGeometry x="1290" y="190" width="70" height="30" as="geometry"/>
                </mxCell>
                <mxCell id="278" value="&lt;font color=&quot;#ffffff&quot; style=&quot;font-size: 14px; background-color: rgb(102, 102, 255);&quot;&gt;Next Node&lt;/font&gt;" style="text;html=1;strokeColor=none;fillColor=none;align=center;verticalAlign=middle;whiteSpace=wrap;rounded=0;labelBackgroundColor=#333333;fillStyle=auto;fontFamily=Helvetica;fontSize=15;fontColor=#6666FF;" parent="1" vertex="1">
                    <mxGeometry x="1359" y="310" width="70" height="30" as="geometry"/>
                </mxCell>
                <mxCell id="279" value="&lt;font color=&quot;#ffffff&quot;&gt;&lt;span style=&quot;font-size: 14px; background-color: rgb(102, 102, 255);&quot;&gt;Data&lt;/span&gt;&lt;/font&gt;" style="text;html=1;strokeColor=none;fillColor=none;align=center;verticalAlign=middle;whiteSpace=wrap;rounded=0;labelBackgroundColor=#333333;fillStyle=auto;fontFamily=Helvetica;fontSize=15;fontColor=#6666FF;" parent="1" vertex="1">
                    <mxGeometry x="1289" y="310" width="70" height="30" as="geometry"/>
                </mxCell>
                <mxCell id="280" value="&lt;font color=&quot;#ffffff&quot; style=&quot;font-size: 14px; background-color: rgb(102, 102, 255);&quot;&gt;Next Node&lt;/font&gt;" style="text;html=1;strokeColor=none;fillColor=none;align=center;verticalAlign=middle;whiteSpace=wrap;rounded=0;labelBackgroundColor=#333333;fillStyle=auto;fontFamily=Helvetica;fontSize=15;fontColor=#6666FF;" parent="1" vertex="1">
                    <mxGeometry x="1360" y="430" width="70" height="30" as="geometry"/>
                </mxCell>
                <mxCell id="281" value="&lt;font color=&quot;#ffffff&quot;&gt;&lt;span style=&quot;font-size: 14px; background-color: rgb(102, 102, 255);&quot;&gt;Data&lt;/span&gt;&lt;/font&gt;" style="text;html=1;strokeColor=none;fillColor=none;align=center;verticalAlign=middle;whiteSpace=wrap;rounded=0;labelBackgroundColor=#333333;fillStyle=auto;fontFamily=Helvetica;fontSize=15;fontColor=#6666FF;" parent="1" vertex="1">
                    <mxGeometry x="1290" y="430" width="70" height="30" as="geometry"/>
                </mxCell>
                <mxCell id="288" value="&lt;font color=&quot;#ffffff&quot; style=&quot;font-size: 14px; background-color: rgb(102, 102, 255);&quot;&gt;Next Node&lt;/font&gt;" style="text;html=1;strokeColor=none;fillColor=none;align=center;verticalAlign=middle;whiteSpace=wrap;rounded=0;labelBackgroundColor=#333333;fillStyle=auto;fontFamily=Helvetica;fontSize=15;fontColor=#6666FF;" parent="1" vertex="1">
                    <mxGeometry x="1360" y="550" width="70" height="30" as="geometry"/>
                </mxCell>
                <mxCell id="289" value="&lt;font color=&quot;#ffffff&quot;&gt;&lt;span style=&quot;font-size: 14px; background-color: rgb(102, 102, 255);&quot;&gt;Data&lt;/span&gt;&lt;/font&gt;" style="text;html=1;strokeColor=none;fillColor=none;align=center;verticalAlign=middle;whiteSpace=wrap;rounded=0;labelBackgroundColor=#333333;fillStyle=auto;fontFamily=Helvetica;fontSize=15;fontColor=#6666FF;" parent="1" vertex="1">
                    <mxGeometry x="1290" y="550" width="70" height="30" as="geometry"/>
                </mxCell>
                <mxCell id="295" value="&lt;font color=&quot;#ff3333&quot; style=&quot;font-size: 32px;&quot;&gt;Double - Linked List&lt;/font&gt;" style="text;html=1;strokeColor=none;fillColor=none;align=center;verticalAlign=middle;whiteSpace=wrap;rounded=0;labelBackgroundColor=none;fillStyle=auto;fontFamily=Helvetica;fontSize=17;fontColor=#FFFFFF;" parent="1" vertex="1">
                    <mxGeometry x="354" y="20" width="450" height="30" as="geometry"/>
                </mxCell>
                <mxCell id="296" value="&lt;font color=&quot;#ff3333&quot; style=&quot;font-size: 32px;&quot;&gt;Circular Linked List&lt;/font&gt;" style="text;html=1;strokeColor=none;fillColor=none;align=center;verticalAlign=middle;whiteSpace=wrap;rounded=0;labelBackgroundColor=none;fillStyle=auto;fontFamily=Helvetica;fontSize=17;fontColor=#FFFFFF;" parent="1" vertex="1">
                    <mxGeometry x="390" y="560" width="450" height="30" as="geometry"/>
                </mxCell>
                <mxCell id="297" value="&lt;font color=&quot;#ff3333&quot; style=&quot;font-size: 32px;&quot;&gt;Single - Linked List&lt;/font&gt;" style="text;html=1;strokeColor=none;fillColor=none;align=center;verticalAlign=middle;whiteSpace=wrap;rounded=0;labelBackgroundColor=none;fillStyle=auto;fontFamily=Helvetica;fontSize=17;fontColor=#FFFFFF;" parent="1" vertex="1">
                    <mxGeometry x="1060" y="140" width="450" height="30" as="geometry"/>
                </mxCell>
                <mxCell id="298" value="#Start" style="ellipse;whiteSpace=wrap;html=1;" vertex="1" parent="1">
                    <mxGeometry x="50" y="451" width="120" height="80" as="geometry"/>
                </mxCell>
                <mxCell id="299" value="#Start" style="ellipse;whiteSpace=wrap;html=1;" vertex="1" parent="1">
                    <mxGeometry x="600" y="1160" width="120" height="80" as="geometry"/>
                </mxCell>
            </root>
        </mxGraphModel>
    </diagram>
</mxfile>